# xmcd
#
# Track frame offsets:
#	150
#	12224
#	28520
#	45931
#	78624
#	97090
#	112734
#	126768
#	141095
#	159184
#	171697
#	194547
#	210250
#	227831
#	248201
#	264124
#
# Disc length: 3749 seconds
#
# Revision: 2
# Processed by: cddbd v1.5.1PL0 Copyright (c) Steve Scherf et al.
# Submitted via: audiograbber 1.83.01
#
DISCID=ca0ea310
DTITLE=NDW -  von Karim
DYEAR=1900
DGENRE=
TTITLE0=?
TTITLE1=Nena - Nur geträmt
TTITLE2=Nena - 99 Luftballons
TTITLE3=Nena - Irgendwie,irgendwo,irgendwann
TTITLE4=Major Tom ,Alarmsignal - Die schule brennt
TTITLE5=Peter Maffay - Über 7 Brücken
TTITLE6=Nena - Leuchtturm
TTITLE7=?
TTITLE8=Peter Schilling - Major Tom
TTITLE9=Auf nach Süden - 
TTITLE10=Peter Schilling - Terra Titanic
TTITLE11=?
TTITLE12=?
TTITLE13=Dschingis Khan - Moskau
TTITLE14=Dj. Ötzi - Live is Life2002 Mix
TTITLE15=Dj. Ötzi - Is Coming come
EXTD=
EXTT0=
EXTT1=
EXTT2=
EXTT3=
EXTT4=
EXTT5=
EXTT6=
EXTT7=
EXTT8=
EXTT9=
EXTT10=
EXTT11=
EXTT12=
EXTT13=
EXTT14=
EXTT15=
PLAYORDER=
